<?xml version="1.0" encoding="UTF-8"?>
<svg version="1.1" xmlns="http://www.w3.org/2000/svg" width="512" height="512">
<path d="M0 0 C1.01790619 0.00215515 2.03581238 0.0043103 3.08456421 0.00653076 C17.69363523 0.05620146 32.02575853 0.30709809 46.375 3.3125 C47.34985352 3.51117676 48.32470703 3.70985352 49.32910156 3.91455078 C97.7109774 14.03517194 141.69928269 35.9516877 177.375 70.3125 C178.3640332 71.26068604 178.3640332 71.26068604 179.37304688 72.22802734 C188.86130305 81.37247479 197.6012044 90.66984009 205.375 101.3125 C206.23306152 102.46355017 207.09113451 103.61459177 207.94921875 104.765625 C213.98736829 112.95680614 219.34595521 121.47054105 224.375 130.3125 C224.73948242 130.94430176 225.10396484 131.57610352 225.47949219 132.22705078 C247.08534998 169.97532572 256.85198095 212.74189997 256.6875 255.9375 C256.68534485 256.95540619 256.6831897 257.97331238 256.68096924 259.02206421 C256.63129854 273.63113523 256.38040191 287.96325853 253.375 302.3125 C253.07698486 303.77478027 253.07698486 303.77478027 252.77294922 305.26660156 C242.65232806 353.6484774 220.7358123 397.63678269 186.375 433.3125 C185.74287598 433.97185547 185.11075195 434.63121094 184.45947266 435.31054688 C175.31502521 444.79880305 166.01765991 453.5387044 155.375 461.3125 C154.22394983 462.17056152 153.07290823 463.02863451 151.921875 463.88671875 C143.73224019 469.92427396 135.22961724 475.30707302 126.375 480.3125 C125.66778809 480.7146875 124.96057617 481.116875 124.23193359 481.53125 C101.09654164 494.5566741 75.92537591 503.30551461 49.9375 508.625 C49.21860596 508.77235596 48.49971191 508.91971191 47.7590332 509.0715332 C33.08339502 511.86090125 18.55831162 512.66142619 3.64770508 512.62817383 C0.70811513 512.6250221 -2.2304558 512.64854926 -5.16992188 512.67382812 C-18.54306192 512.71848737 -31.43916711 511.51301542 -44.625 509.3125 C-46.33055054 509.03031616 -46.33055054 509.03031616 -48.07055664 508.74243164 C-91.33802759 500.97044532 -132.38793216 480.98345309 -165.625 452.3125 C-166.37007813 451.67828125 -167.11515625 451.0440625 -167.8828125 450.390625 C-181.38779833 438.57948485 -194.05918743 425.82889772 -204.625 411.3125 C-205.48149066 410.16255169 -206.33826433 409.01281411 -207.1953125 407.86328125 C-213.23534209 399.67315742 -218.61867614 391.16870382 -223.625 382.3125 C-224.0271875 381.60528809 -224.429375 380.89807617 -224.84375 380.16943359 C-237.8691741 357.03404164 -246.61801461 331.86287591 -251.9375 305.875 C-252.08485596 305.15610596 -252.23221191 304.43721191 -252.3840332 303.6965332 C-255.35789088 288.05024391 -255.99800362 272.57681954 -255.9375 256.6875 C-255.93534485 255.66959381 -255.9331897 254.65168762 -255.93096924 253.60293579 C-255.88129854 238.99386477 -255.63040191 224.66174147 -252.625 210.3125 C-252.42632324 209.33764648 -252.22764648 208.36279297 -252.02294922 207.35839844 C-241.90232806 158.9765226 -219.9858123 114.98821731 -185.625 79.3125 C-184.99287598 78.65314453 -184.36075195 77.99378906 -183.70947266 77.31445312 C-174.56502521 67.82619695 -165.26765991 59.0862956 -154.625 51.3125 C-153.47394983 50.45443848 -152.32290823 49.59636549 -151.171875 48.73828125 C-142.98224019 42.70072604 -134.47961724 37.31792698 -125.625 32.3125 C-124.91778809 31.9103125 -124.21057617 31.508125 -123.48193359 31.09375 C-100.34654164 18.0683259 -75.17537591 9.31948539 -49.1875 4 C-48.46860596 3.85264404 -47.74971191 3.70528809 -47.0090332 3.5534668 C-31.36274391 0.57960912 -15.88931954 -0.06050362 0 0 Z " fill="#1769FF" transform="translate(255.625,-0.3125)"/>
<path d="M0 0 C14.7675 -0.04125 29.535 -0.0825 44.75 -0.125 C49.3915918 -0.14320801 54.03318359 -0.16141602 58.81542969 -0.18017578 C64.53759766 -0.18920898 64.53759766 -0.18920898 67.22686768 -0.19088745 C69.08218346 -0.19393377 70.93749559 -0.20091561 72.79278564 -0.21115112 C90.57312805 -0.30423506 107.67554856 -0.07191488 121.5 12.75 C131.8461576 24.14189826 132.85113393 35.78174729 132.23535156 50.45703125 C131.52912015 58.08784703 128.01227571 64.36118982 123 70 C120.421875 72.01953125 120.421875 72.01953125 117.75 73.8125 C116.85796875 74.41707031 115.9659375 75.02164063 115.046875 75.64453125 C114.37140625 76.09183594 113.6959375 76.53914063 113 77 C113.6290625 77.268125 114.258125 77.53625 114.90625 77.8125 C125.37904299 82.6072727 131.80808958 89.22776509 136 100 C140.34269044 113.19627411 138.63239481 127.78107568 132.421875 140.140625 C124.40118382 153.36392667 114.24851792 160.21497286 99.39453125 164.23828125 C92.88742365 165.69844924 86.6698804 166.14304759 80.03540039 166.11352539 C78.71085799 166.11370619 78.71085799 166.11370619 77.35955715 166.11389065 C74.52223056 166.11314868 71.68497098 166.10555328 68.84765625 166.09765625 C67.08752474 166.09618461 65.32739278 166.09516527 63.56726074 166.09460449 C57.06566712 166.08937734 50.56408289 166.07541607 44.0625 166.0625 C29.521875 166.041875 14.98125 166.02125 0 166 C0 111.22 0 56.44 0 0 Z " fill="#FDFEFF" transform="translate(120,171)"/>
<path d="M0 0 C1.03125 0.721875 2.0625 1.44375 3.125 2.1875 C7.54177557 6.09127898 10.77574767 11.11355547 14 16 C14.73283203 17.10601562 14.73283203 17.10601562 15.48046875 18.234375 C18.62358612 23.68889253 20.00686477 29.46080811 21.3125 35.5625 C21.48426758 36.33456787 21.65603516 37.10663574 21.83300781 37.90209961 C23.50106322 46.51138978 23 53.81056241 23 63 C-7.03 63 -37.06 63 -68 63 C-65.64033197 74.79834013 -63.94043351 82.20737044 -54 89 C-46.47044936 93.76532372 -35.37264109 93.15718424 -26.953125 91.34375 C-20.48749333 89.0709825 -16.07112788 85.14225577 -13 79 C-1.78 79 9.44 79 21 79 C18.52768155 91.36159224 11.38469876 101.09154022 1.5 108.6875 C-14.7539498 119.49826661 -36.24311034 121.76369007 -55.19140625 118.38671875 C-71.20279528 114.25180941 -86.0190142 104.24671204 -94.53125 89.97265625 C-103.33335168 72.15776428 -104.1699983 46.79272917 -98 27.9453125 C-91.71421758 11.69325663 -81.80276722 0.48452404 -66 -7 C-45.16967362 -15.46700317 -18.31630709 -13.29814076 0 0 Z " fill="#FBFDFF" transform="translate(370,222)"/>
<path d="M0 0 C6.81372932 -0.046056 13.62691256 -0.08583902 20.44067383 -0.10986328 C22.75579667 -0.11988476 25.07090698 -0.13350557 27.38598633 -0.15087891 C30.72480374 -0.17529702 34.06345294 -0.18652195 37.40234375 -0.1953125 C38.42770737 -0.20563507 39.45307098 -0.21595764 40.50950623 -0.22659302 C49.24880736 -0.22793967 57.00358754 0.30524567 64 6 C69.3177032 11.89259003 69.35289388 16.76525452 69.2734375 24.48046875 C68.70336494 31.81811695 65.51618643 36.05618706 60.07421875 40.7734375 C53.52599098 44.64564752 46.53067891 44.26579644 39.16015625 44.1953125 C38.03806259 44.1924826 36.91596893 44.18965271 35.75987244 44.18673706 C32.19397082 44.17558775 28.62832506 44.15049251 25.0625 44.125 C22.63737343 44.11496343 20.21224291 44.10583876 17.78710938 44.09765625 C11.85789625 44.07737157 5.92923283 44.03821203 0 44 C0 29.48 0 14.96 0 0 Z " fill="#1869FF" transform="translate(153,264)"/>
<path d="M0 0 C6.67131773 -0.04606203 13.34207734 -0.08584315 20.01342773 -0.10986328 C22.28004838 -0.11988328 24.54665623 -0.13350297 26.81323242 -0.15087891 C30.0825518 -0.17530362 33.35169936 -0.18652343 36.62109375 -0.1953125 C38.12632851 -0.21079636 38.12632851 -0.21079636 39.66197205 -0.22659302 C48.19231977 -0.22793488 56.27602917 0.23659643 63 6 C66.79657401 11.18865115 66.67247954 16.81871545 66 23 C64.35680547 27.75661575 62.27733987 30.36079029 58 33 C50.82877811 35.84977313 44.173114 36.41161355 36.5234375 36.29296875 C34.94654648 36.28660149 34.94654648 36.28660149 33.33779907 36.28010559 C30.01659317 36.26346139 26.69601906 36.22583614 23.375 36.1875 C21.10808175 36.17243473 18.84115388 36.15874957 16.57421875 36.14648438 C11.0490465 36.1161707 5.52522115 36.05742147 0 36 C0 24.12 0 12.24 0 0 Z " fill="#1869FF" transform="translate(153,200)"/>
<path d="M0 0 C23.76 0 47.52 0 72 0 C72 6.93 72 13.86 72 21 C48.24 21 24.48 21 0 21 C0 14.07 0 7.14 0 0 Z " fill="#FAFCFF" transform="translate(294,178)"/>
<path d="M0 0 C5.92180619 6.27014773 8.125 11.55311076 8.125 20.25 C-10.025 20.25 -28.175 20.25 -46.875 20.25 C-45.63839701 10.35717612 -43.79548759 5.0030764 -36 -1.2734375 C-24.84714052 -9.02303471 -11.12002769 -6.76871251 0 0 Z " fill="#1A6BFF" transform="translate(349.875,242.75)"/>
</svg>
